<svg version="1.2" xmlns="http://www.w3.org/2000/svg" viewBox="0 0 1334 774" width="1334" height="774">
	<title>expressjs-svg</title>
	<style>
		.s0 { fill: #ffffff } 
	</style>
	<path fill-rule="evenodd" class="s0" d="m1333.3 753.5c-48.5 12.3-78.5 0.5-105.4-39.9l-191.4-264.8-27.7-36.7-223.5 302.4c-25.5 36.4-52.3 52.2-100 39.3l286.2-384.2-266.5-347.1c45.9-8.9 77.5-4.4 105.7 36.7l198.5 268.1 200-266.7c25.6-36.4 53.2-50.2 99.2-36.8l-103.4 137-140 182.3c-16.6 20.8-14.3 35.1 1 55.2zm-1333-390.3l23.4-115.2c63.8-227.9 325-322.6 505.2-181.8 105.3 82.8 131.5 200 126.2 331.3h-593.5c-8.9 236.2 161.2 378.8 377.9 306 76.1-25.5 120.9-85 143.3-159.5 11.4-37.4 30.2-43.2 65.3-32.5-17.9 93.1-58.3 171-143.8 219.7-127.6 72.9-309.8 49.3-405.6-52-57.1-58.8-80.6-133.3-91.2-213-1.7-13.2-5-25.7-7.5-38.3q0.3-32.3 0.3-64.7zm598.8-15.8c-3.5-170.8-109.9-292.2-255.3-293.2-159.6-1.3-274.2 117.2-281.1 293.2z"/>
</svg>